<svg width="479" height="479" viewBox="0 0 479 479" fill="none" xmlns="http://www.w3.org/2000/svg">
<circle cx="239.5" cy="239.5" r="229.5" stroke="#F3EE20" stroke-width="20"/>
<path fill-rule="evenodd" clip-rule="evenodd" d="M377.91 179.315V281.566V305.87V329H342.98V305.87H136.964V329H102.034V305.87V281.566V179.315H90V156.307H119.389L135.768 105.255C140.601 90.2182 148.656 76.5505 164.425 76.5505H200.502V56.3056C200.502 47.2345 198.622 48.0169 207.141 48.0169H273.852C280.98 48.0169 279.442 47.3323 279.442 54.9364V76.526H321.622C337.39 76.526 346.471 89.9248 350.278 105.231L362.947 156.283H389.944V179.291H377.91V179.315ZM187.662 259.683H290.841V284.06H187.662V259.683ZM113.726 202.91C140.015 203.741 156.101 214.793 160.226 237.776H113.726V202.91ZM362.898 202.91C336.609 203.741 320.523 214.793 316.398 237.776H362.898V202.91ZM131.936 156.283H348.008L338.757 113.47C336.219 101.734 328.92 91.5874 316.911 91.5874H167.476C155.466 91.5874 149.315 102.003 145.629 113.47L131.936 156.283Z" fill="#F3EE20"/>
<path d="M214.812 59.1305V56.2754H227.107V59.1305H222.696V70.8208H219.23V59.1305H214.812ZM230.153 70.8208H226.375L231.283 56.2754H235.963L240.871 70.8208H237.092L233.676 59.9401H233.562L230.153 70.8208ZM229.649 65.0964H237.547V67.7668H229.649V65.0964ZM245.995 56.2754L248.651 60.8705H248.765L251.45 56.2754H255.384L250.995 63.5481L255.526 70.8208H251.492L248.765 66.1759H248.651L245.924 70.8208H241.918L246.428 63.5481L242.032 56.2754H245.995ZM260.718 56.2754V70.8208H257.202V56.2754H260.718Z" fill="black"/>
<path d="M134.193 390.66C134.819 390.66 135.429 390.591 136.021 390.455C136.625 390.318 137.149 390.033 137.594 389.6C138.049 389.167 138.42 388.546 138.705 387.737C138.989 386.917 139.132 385.818 139.132 384.439C139.132 383.083 138.995 381.995 138.722 381.175C138.448 380.343 138.089 379.705 137.645 379.261C137.212 378.816 136.688 378.526 136.073 378.389C135.469 378.241 134.842 378.167 134.193 378.167H132.586V390.66H134.193ZM119.701 397V390.66C120.703 390.66 121.421 390.529 121.854 390.267C122.287 389.993 122.503 389.486 122.503 388.746V380.098C122.503 379.346 122.287 378.839 121.854 378.577C121.421 378.304 120.703 378.167 119.701 378.167V371.827H137.833C139.462 371.827 141.04 372.043 142.567 372.476C144.094 372.909 145.449 373.615 146.634 374.595C147.831 375.575 148.788 376.874 149.505 378.492C150.235 380.098 150.599 382.081 150.599 384.439C150.599 386.797 150.24 388.78 149.522 390.386C148.816 391.993 147.848 393.286 146.617 394.266C145.398 395.245 143.968 395.952 142.328 396.385C140.687 396.818 138.944 397.034 137.098 397.034L119.701 397ZM168.167 390.66C168.635 390.66 169.022 390.62 169.33 390.54C169.649 390.46 169.899 390.312 170.082 390.096C170.275 389.868 170.406 389.56 170.475 389.173C170.543 388.785 170.577 388.29 170.577 387.686H176.559V397H152.206V390.66C153.208 390.66 153.926 390.529 154.359 390.267C154.792 389.993 155.008 389.486 155.008 388.746V380.098C155.008 379.346 154.792 378.839 154.359 378.577C153.926 378.304 153.208 378.167 152.206 378.167V371.827H176.559V381.141H170.577C170.577 380.537 170.543 380.041 170.475 379.654C170.406 379.266 170.275 378.965 170.082 378.748C169.899 378.532 169.649 378.383 169.33 378.304C169.022 378.213 168.635 378.167 168.167 378.167H165.091V382.713H170.543V385.738H165.091V390.66H168.167ZM202.518 397V390.66C203.521 390.66 204.176 390.529 204.483 390.267C204.802 389.993 204.962 389.486 204.962 388.746V378.936L199.117 397H192.538L186.59 379.893V388.951C186.59 389.327 186.625 389.629 186.693 389.856C186.761 390.073 186.881 390.244 187.052 390.369C187.234 390.494 187.485 390.574 187.804 390.608C188.134 390.643 188.544 390.66 189.034 390.66V397H177.977V390.66C178.98 390.66 179.697 390.529 180.13 390.267C180.563 389.993 180.78 389.486 180.78 388.746V380.098C180.78 379.346 180.563 378.839 180.13 378.577C179.697 378.304 178.98 378.167 177.977 378.167V371.827H194.247L198.177 383.636L201.595 371.827H217.66V378.167C216.657 378.167 215.939 378.304 215.506 378.577C215.085 378.839 214.874 379.346 214.874 380.098V388.746C214.874 389.486 215.085 389.993 215.506 390.267C215.939 390.529 216.657 390.66 217.66 390.66V397H202.518ZM219.232 384.439C219.232 382.24 219.591 380.315 220.309 378.663C221.038 376.999 222.063 375.609 223.385 374.493C224.706 373.376 226.273 372.539 228.084 371.98C229.907 371.422 231.918 371.143 234.117 371.143C236.305 371.143 238.31 371.422 240.133 371.98C241.956 372.539 243.522 373.376 244.833 374.493C246.154 375.609 247.174 376.999 247.892 378.663C248.621 380.315 248.985 382.24 248.985 384.439C248.985 386.626 248.621 388.552 247.892 390.215C247.174 391.867 246.154 393.257 244.833 394.385C243.522 395.502 241.956 396.339 240.133 396.897C238.31 397.456 236.305 397.735 234.117 397.735C231.918 397.735 229.907 397.456 228.084 396.897C226.273 396.339 224.706 395.502 223.385 394.385C222.063 393.257 221.038 391.867 220.309 390.215C219.591 388.552 219.232 386.626 219.232 384.439ZM230.716 384.439C230.716 385.818 230.768 386.974 230.87 387.908C230.973 388.831 231.149 389.583 231.4 390.164C231.662 390.734 232.009 391.15 232.442 391.412C232.875 391.662 233.434 391.788 234.117 391.788C234.767 391.788 235.313 391.662 235.758 391.412C236.202 391.15 236.55 390.734 236.8 390.164C237.062 389.583 237.245 388.831 237.347 387.908C237.45 386.974 237.501 385.818 237.501 384.439C237.501 383.083 237.45 381.932 237.347 380.987C237.245 380.041 237.062 379.284 236.8 378.714C236.55 378.144 236.202 377.734 235.758 377.483C235.313 377.221 234.767 377.09 234.117 377.09C233.434 377.09 232.875 377.221 232.442 377.483C232.009 377.734 231.662 378.144 231.4 378.714C231.149 379.284 230.973 380.041 230.87 380.987C230.768 381.932 230.716 383.083 230.716 384.439ZM288.292 371.827V381.841H282.669C282.669 381.078 282.647 380.417 282.601 379.859C282.567 379.289 282.481 378.833 282.345 378.492C282.208 378.139 281.997 377.882 281.712 377.723C281.439 377.552 281.069 377.466 280.602 377.466H279.542V388.746C279.542 389.486 279.758 389.993 280.191 390.267C280.624 390.529 281.342 390.66 282.345 390.66V397H266.673V390.66C267.676 390.66 268.388 390.529 268.81 390.267C269.243 389.993 269.459 389.486 269.459 388.746V377.466H268.417C267.949 377.466 267.573 377.552 267.289 377.723C267.015 377.882 266.804 378.139 266.656 378.492C266.52 378.833 266.434 379.289 266.4 379.859C266.366 380.417 266.349 381.078 266.349 381.841H260.709V371.827H288.292ZM302.032 388.216H296.632L296.393 388.951C296.21 389.441 296.222 389.851 296.427 390.181C296.632 390.5 297.065 390.66 297.726 390.66H298.7V397H288.053V390.66H288.753C289.574 390.66 290.121 390.5 290.394 390.181C290.679 389.851 290.952 389.372 291.214 388.746L294.718 380.098C294.968 379.437 295.008 378.953 294.837 378.646C294.678 378.326 294.182 378.167 293.351 378.167H292.992V371.827H310.56V378.167H310.218C309.375 378.167 308.868 378.332 308.697 378.663C308.538 378.993 308.589 379.472 308.851 380.098L312.354 388.746C312.491 389.065 312.611 389.344 312.713 389.583C312.827 389.811 312.964 390.01 313.124 390.181C313.283 390.341 313.494 390.46 313.756 390.54C314.029 390.62 314.377 390.66 314.798 390.66H315.499V397H299.964V390.66H300.904C301.554 390.66 301.987 390.5 302.203 390.181C302.431 389.851 302.454 389.441 302.271 388.951L302.032 388.216ZM297.503 385.55H301.144L299.435 380.303H299.298L297.503 385.55ZM331.273 381.397L332.811 379.893C333.028 379.677 333.204 379.466 333.341 379.261C333.478 379.044 333.529 378.862 333.495 378.714C333.46 378.566 333.318 378.44 333.067 378.338C332.828 378.224 332.441 378.167 331.905 378.167V371.827H341.852V378.167C341.122 378.167 340.467 378.315 339.886 378.611C339.305 378.896 338.673 379.392 337.989 380.098L334.007 384.114L338.656 388.746C339.191 389.258 339.755 389.708 340.348 390.096C340.951 390.472 341.555 390.66 342.159 390.66V397H327.838V390.66C328.328 390.66 328.692 390.608 328.932 390.506C329.182 390.403 329.325 390.278 329.359 390.13C329.404 389.97 329.365 389.788 329.239 389.583C329.125 389.367 328.966 389.156 328.761 388.951L327.103 387.344L325.428 388.951C325.223 389.156 325.047 389.367 324.898 389.583C324.762 389.788 324.71 389.97 324.745 390.13C324.779 390.278 324.916 390.403 325.155 390.506C325.405 390.608 325.799 390.66 326.334 390.66V397H316.405V390.66C317.123 390.66 317.772 390.517 318.353 390.232C318.945 389.936 319.578 389.441 320.25 388.746L324.352 384.576L319.857 380.098C319.321 379.585 318.786 379.135 318.25 378.748C317.715 378.361 317.145 378.167 316.542 378.167V371.827H330.504V378.167C330.014 378.167 329.655 378.224 329.427 378.338C329.211 378.44 329.091 378.566 329.068 378.714C329.046 378.862 329.103 379.044 329.239 379.261C329.387 379.466 329.564 379.677 329.769 379.893L331.273 381.397ZM343.407 397V390.66C344.409 390.66 345.127 390.529 345.56 390.267C345.993 389.993 346.209 389.486 346.209 388.746V380.098C346.209 379.346 345.993 378.839 345.56 378.577C345.127 378.304 344.409 378.167 343.407 378.167V371.827H359.078V378.167C358.076 378.167 357.358 378.304 356.925 378.577C356.503 378.839 356.292 379.346 356.292 380.098V388.746C356.292 389.486 356.503 389.993 356.925 390.267C357.358 390.529 358.076 390.66 359.078 390.66V397H343.407Z" fill="#F3EE20"/>
</svg>
